<?xml version="1.0" encoding="utf-8"?>
<!-- Generator: Adobe Illustrator 24.1.2, SVG Export Plug-In . SVG Version: 6.00 Build 0)  -->
<svg version="1.1" id="Layer_1" xmlns="http://www.w3.org/2000/svg" xmlns:xlink="http://www.w3.org/1999/xlink" x="0px" y="0px"
	 viewBox="0 0 675.71 675.22" style="enable-background:new 0 0 675.71 675.22;" xml:space="preserve">
<style type="text/css">
	.st0{fill:#34495E;}
	.st1{fill:#4DA2FF;}
</style>
<path class="st0" d="M338.47,0.17C447.58,0.17,556.69,0.24,665.8,0c7.54-0.02,9.93,1.43,9.91,9.59
	c-0.32,107.04-0.64,214.09-0.04,321.13c0.33,58.6-11.75,113.95-39.59,165.48c-38.54,71.33-95.58,122.54-170.38,153.82
	c-38.4,16.06-78.56,23.92-120.11,25.07c-51.01,1.41-99.79-8.36-146.25-29.38c-35.99-16.28-68.47-37.97-96.65-65.66
	c-40.78-40.06-70.12-87.31-87.22-142.02c-9.91-31.71-14.81-64.26-15.31-97.37c-0.46-31,0.38-62.02,0.41-93.03
	C0.63,168.51,0.58,89.39,0.58,10.27c0-10.1,0.01-10.1,9.78-10.1C119.73,0.17,229.1,0.17,338.47,0.17z M176.04,348.82
	c-48.08,0-96.17,0.08-144.25-0.1c-5.59-0.02-7.65,1.2-7.4,7.34c1.21,29.34,7.01,57.81,16.83,85.33
	c13.54,37.95,33.4,72.29,60.05,102.83c27.34,31.33,59.4,56.37,96.38,74.95c37.72,18.95,77.89,29.3,120.09,32.38
	c8.43,0.61,9.24-1.85,9.23-8.88c-0.17-94.62-0.12-189.23-0.12-283.85c0-9.98-0.02-9.99-10.43-9.99
	C269.62,348.81,222.83,348.82,176.04,348.82z M349.23,499.74c0,47.33,0.25,94.66-0.23,141.98c-0.08,8.37,2.64,10.02,10.08,9.51
	c9.27-0.63,18.43-1.85,27.6-3.26c50.94-7.84,97.12-27.29,138.36-57.95c55.55-41.28,93.42-95.36,113.88-161.48
	c7.18-23.2,11.52-46.94,12.73-71.28c0.34-6.92-1.68-8.61-8.52-8.59c-94.91,0.23-189.83,0.22-284.74,0.02
	c-6.99-0.01-9.38,1.71-9.33,9.08C349.38,405.08,349.23,452.41,349.23,499.74z M326.45,174.69c0-47.33-0.16-94.66,0.17-141.99
	c0.05-7.22-1.36-9.58-9.15-9.56c-94.92,0.29-189.83,0.26-284.75,0.06c-6.74-0.01-9.19,1.22-9.17,8.73
	c0.28,95.17,0.25,190.35,0.05,285.52c-0.01,6.5,1.15,8.79,8.34,8.77c95.43-0.27,190.87-0.27,286.3,0c7.2,0.02,8.38-2.27,8.35-8.77
	C326.33,269.86,326.45,222.28,326.45,174.69z M349.62,174.73c0,45.48,0,90.96,0,136.43c0,14.92,0.01,14.52,15.02,15.06
	c6.9,0.24,8.55-1.7,8.53-8.55C372.93,224.65,373,131.63,373,38.6c0-15.33-0.01-14.99-15.41-15.43c-6.48-0.18-8.16,1.7-8.12,8.14
	C349.75,79.12,349.62,126.93,349.62,174.73z M419.56,175.52c0-45.74,0-91.47,0-137.21c0-15-0.01-14.64-14.93-15.14
	c-6.72-0.22-8.65,1.43-8.63,8.44c0.26,93.02,0.17,186.05,0.17,279.07c0,15.41,0.01,15.1,15.32,15.51c6.34,0.17,8.27-1.45,8.22-8.04
	C419.42,270.61,419.56,223.06,419.56,175.52z M466.11,174.62c0-45.48,0-90.96,0-136.43c0-14.89-0.01-14.49-15.05-15.03
	c-6.95-0.25-8.51,1.79-8.5,8.58c0.24,93.02,0.16,186.05,0.16,279.07c0,15.3,0.01,14.96,15.44,15.4c6.53,0.19,8.13-1.77,8.09-8.17
	C465.99,270.23,466.11,222.43,466.11,174.62z M489.28,173.82c0,45.74,0,91.47,0,137.21c0,15.05,0.02,14.54,14.88,15.22
	c7.69,0.35,8.64-2.61,8.63-9.22c-0.19-92.76-0.13-185.53-0.13-278.29c0-15.45-0.02-14.99-15.27-15.6c-7.35-0.29-8.28,2.44-8.25,8.82
	C489.4,79.24,489.28,126.53,489.28,173.82z M535.83,174.77c0,45.48,0,90.96,0,136.43c0,14.88,0.01,14.47,15.06,15.02
	c6.98,0.25,8.5-1.83,8.48-8.59c-0.24-93.02-0.16-186.05-0.16-279.07c0-15.29-0.01-14.95-15.45-15.39c-6.55-0.19-8.12,1.81-8.08,8.19
	C535.96,79.16,535.83,126.97,535.83,174.77z M582.39,173.9c0,45.74,0,91.47,0,137.21c0,14.97,0.01,14.59,14.97,15.1
	c6.79,0.23,8.61-1.55,8.59-8.49c-0.25-93.02-0.17-186.05-0.17-279.07c0-15.38-0.01-15.05-15.36-15.47c-6.4-0.18-8.22,1.55-8.18,8.08
	C582.52,78.81,582.39,126.36,582.39,173.9z M628.94,173.81c0,45.74,0,91.47,0,137.21c0,15.06,0.02,14.56,14.87,15.23
	c7.67,0.35,8.66-2.59,8.64-9.21c-0.19-92.76-0.13-185.53-0.13-278.29c0-15.46-0.02-15-15.26-15.61c-7.33-0.29-8.3,2.41-8.26,8.81
	C629.06,79.23,628.94,126.52,628.94,173.81z"/>
<path class="st1" d="M176.04,348.82c46.79,0,93.58,0,140.37,0c10.41,0,10.43,0.01,10.43,9.99c0,94.62-0.06,189.23,0.12,283.85
	c0.01,7.03-0.8,9.49-9.23,8.88c-42.2-3.08-82.36-13.43-120.09-32.38c-36.98-18.58-69.04-43.62-96.38-74.95
	c-26.65-30.54-46.51-64.87-60.05-102.83c-9.82-27.51-15.61-55.98-16.83-85.33c-0.25-6.14,1.8-7.36,7.4-7.34
	C79.87,348.89,127.96,348.82,176.04,348.82z"/>
<path class="st1" d="M349.23,499.74c0-47.33,0.16-94.66-0.16-141.98c-0.05-7.36,2.34-9.09,9.33-9.08
	c94.91,0.2,189.83,0.21,284.74-0.02c6.83-0.02,8.86,1.67,8.52,8.59c-1.21,24.34-5.55,48.09-12.73,71.28
	c-20.46,66.12-58.33,120.2-113.88,161.48c-41.25,30.66-87.43,50.12-138.36,57.95c-9.16,1.41-18.32,2.63-27.6,3.26
	c-7.44,0.51-10.17-1.14-10.08-9.51C349.47,594.39,349.23,547.06,349.23,499.74z"/>
<path class="st0" d="M271.24,240.3c0,11.86-0.26,23.73,0.12,35.57c0.17,5.14-1.92,5.83-6.31,5.75c-13.44-0.25-26.9-0.32-40.34,0.03
	c-5.29,0.14-7.08-1.24-7.02-6.8c0.19-16.79,0.52-33.64-0.61-50.37c-1.58-23.28-21.06-39.89-43.93-38.8
	c-22.92,1.09-40.5,19.26-40.75,42.35c-0.17,15.52-0.23,31.04,0.08,46.55c0.1,5.18-1.02,7.26-6.72,7.09
	c-13.69-0.42-27.41-0.28-41.11-0.06c-4.39,0.07-5.79-1.4-5.76-5.77c0.17-23.98,0.16-47.96,0.04-71.94c-0.02-3.46,1.3-5.77,3.63-8.09
	c29.49-29.39,58.97-58.8,88.28-88.37c3.39-3.42,5.21-3.36,8.57,0.03c29.13,29.39,58.42,58.61,87.73,87.83
	c2.91,2.9,4.28,5.95,4.17,10.21c-0.3,11.6-0.1,23.2-0.1,34.81C271.21,240.3,271.23,240.3,271.24,240.3z"/>
<path class="st0" d="M300.73,177.32c-5.68,5.4-9.88,10.44-15.1,13.98c-2.91,1.97-4.86-2.66-6.82-4.6
	c-32.65-32.31-65.28-64.64-97.66-97.23c-4.52-4.55-6.81-5.43-11.9-0.28c-32.6,33.01-65.71,65.53-98.46,98.4
	c-3.98,4-6.24,5.07-10.72,0.34c-9.85-10.41-10.16-10.11,0.11-20.38C96.72,131,133.32,94.51,169.73,57.84
	c3.76-3.79,5.91-4.94,10.29-0.51c38.51,38.94,77.27,77.64,115.98,116.39C297.22,174.94,298.76,175.84,300.73,177.32z"/>
</svg>
